<mxfile host="app.diagrams.net" modified="2021-05-17T00:46:15.301Z" agent="5.0 (Windows NT 10.0; Win64; x64) AppleWebKit/537.36 (KHTML, like Gecko) Chrome/90.0.4430.212 Safari/537.36" etag="c9bHoijQv0gFYgpeSlDa" version="14.6.11" type="github">
  <diagram id="vo-hjK1K4j_7D3LPHk43" name="Page-1">
    <mxGraphModel dx="4070" dy="2423" grid="1" gridSize="10" guides="1" tooltips="1" connect="1" arrows="1" fold="1" page="1" pageScale="1" pageWidth="850" pageHeight="1100" math="0" shadow="0">
      <root>
        <mxCell id="0" />
        <mxCell id="1" parent="0" />
        <mxCell id="t8tSUtK5Kmf206RxObDF-2" value="" style="strokeWidth=1;shadow=0;dashed=0;align=center;html=1;shape=mxgraph.mockup.containers.browserWindow;rSize=0;strokeColor=#666666;strokeColor2=#008cff;strokeColor3=#c4c4c4;mainText=,;recursiveResize=0;fillColor=#000000;" parent="1" vertex="1">
          <mxGeometry x="-1675" y="-1060" width="805" height="1040" as="geometry" />
        </mxCell>
        <mxCell id="t8tSUtK5Kmf206RxObDF-3" value="The Rock" style="strokeWidth=1;shadow=0;dashed=0;align=center;html=1;shape=mxgraph.mockup.containers.anchor;fontSize=17;fontColor=#666666;align=left;" parent="t8tSUtK5Kmf206RxObDF-2" vertex="1">
          <mxGeometry x="60" y="12" width="160" height="26" as="geometry" />
        </mxCell>
        <mxCell id="t8tSUtK5Kmf206RxObDF-4" value="https://www.draw.io" style="strokeWidth=1;shadow=0;dashed=0;align=center;html=1;shape=mxgraph.mockup.containers.anchor;rSize=0;fontSize=17;fontColor=#666666;align=left;" parent="t8tSUtK5Kmf206RxObDF-2" vertex="1">
          <mxGeometry x="130" y="60" width="250" height="26" as="geometry" />
        </mxCell>
        <mxCell id="t8tSUtK5Kmf206RxObDF-5" value="" style="rounded=0;whiteSpace=wrap;html=1;fillColor=#1F1FFF;" parent="t8tSUtK5Kmf206RxObDF-2" vertex="1">
          <mxGeometry x="260" y="350" width="530" height="200" as="geometry" />
        </mxCell>
        <mxCell id="t8tSUtK5Kmf206RxObDF-7" value="" style="rounded=0;whiteSpace=wrap;html=1;fillColor=#1F1FFF;" parent="t8tSUtK5Kmf206RxObDF-2" vertex="1">
          <mxGeometry x="15" y="720" width="775" height="200" as="geometry" />
        </mxCell>
        <mxCell id="3WohF5WWOGCnvatZn4Wn-1" style="edgeStyle=orthogonalEdgeStyle;rounded=0;orthogonalLoop=1;jettySize=auto;html=1;" edge="1" parent="t8tSUtK5Kmf206RxObDF-2" source="t8tSUtK5Kmf206RxObDF-8" target="t8tSUtK5Kmf206RxObDF-2">
          <mxGeometry relative="1" as="geometry" />
        </mxCell>
        <mxCell id="t8tSUtK5Kmf206RxObDF-8" value="" style="rounded=0;whiteSpace=wrap;html=1;fillColor=#1F1FFF;" parent="t8tSUtK5Kmf206RxObDF-2" vertex="1">
          <mxGeometry x="15" y="930" width="775" height="90" as="geometry" />
        </mxCell>
        <mxCell id="t8tSUtK5Kmf206RxObDF-11" value="" style="whiteSpace=wrap;html=1;aspect=fixed;strokeColor=#FFFFFF;fillColor=#1F1FFF;" parent="t8tSUtK5Kmf206RxObDF-2" vertex="1">
          <mxGeometry x="35" y="350" width="200" height="200" as="geometry" />
        </mxCell>
        <mxCell id="t8tSUtK5Kmf206RxObDF-12" value="" style="rounded=0;whiteSpace=wrap;html=1;fillColor=#1F1FFF;" parent="t8tSUtK5Kmf206RxObDF-2" vertex="1">
          <mxGeometry x="30" y="140" width="760" height="190" as="geometry" />
        </mxCell>
        <mxCell id="t8tSUtK5Kmf206RxObDF-17" value="" style="verticalLabelPosition=bottom;shadow=0;dashed=0;align=center;html=1;verticalAlign=top;strokeWidth=1;shape=mxgraph.mockup.containers.userMale;strokeColor=#666666;strokeColor2=#008cff;" parent="t8tSUtK5Kmf206RxObDF-2" vertex="1">
          <mxGeometry x="60" y="380" width="145" height="150" as="geometry" />
        </mxCell>
        <mxCell id="t8tSUtK5Kmf206RxObDF-20" value="" style="whiteSpace=wrap;html=1;aspect=fixed;fillColor=#1F1FFF;" parent="t8tSUtK5Kmf206RxObDF-2" vertex="1">
          <mxGeometry x="640" y="560" width="150" height="150" as="geometry" />
        </mxCell>
        <mxCell id="t8tSUtK5Kmf206RxObDF-19" value="" style="rounded=0;whiteSpace=wrap;html=1;fillColor=#1F1FFF;" parent="t8tSUtK5Kmf206RxObDF-2" vertex="1">
          <mxGeometry x="15" y="560" width="265" height="150" as="geometry" />
        </mxCell>
        <mxCell id="t8tSUtK5Kmf206RxObDF-18" value="" style="rounded=0;whiteSpace=wrap;html=1;fillColor=#1F1FFF;" parent="t8tSUtK5Kmf206RxObDF-2" vertex="1">
          <mxGeometry x="295" y="560" width="305" height="150" as="geometry" />
        </mxCell>
        <mxCell id="t8tSUtK5Kmf206RxObDF-21" value="" style="verticalLabelPosition=bottom;shadow=0;dashed=0;align=center;html=1;verticalAlign=top;strokeWidth=1;shape=mxgraph.mockup.containers.userMale;strokeColor=#666666;strokeColor2=#008cff;" parent="t8tSUtK5Kmf206RxObDF-2" vertex="1">
          <mxGeometry x="645" y="570" width="140" height="130" as="geometry" />
        </mxCell>
      </root>
    </mxGraphModel>
  </diagram>
</mxfile>
